<?xml version="1.0" encoding="UTF-8"?>
<svg xmlns="http://www.w3.org/2000/svg" width="1200" height="770" viewBox="0 0 1200 770">
<title>Overall classification metrics</title>
<rect width="1200" height="770" fill="#ffffff"/>
<text x="600.0" y="34.0" text-anchor="middle" font-family="Arial, sans-serif" font-size="22" font-weight="bold" fill="#172033">RAG vs non-RAG metrics on matched questions</text>
<rect x="470" y="51" width="16" height="16" rx="2" fill="#2563eb"/>
<text x="493.0" y="64.0" text-anchor="start" font-family="Arial, sans-serif" font-size="13" font-weight="normal" fill="#172033">RAG</text>
<rect x="565" y="51" width="16" height="16" rx="2" fill="#f97316"/>
<text x="588.0" y="64.0" text-anchor="start" font-family="Arial, sans-serif" font-size="13" font-weight="normal" fill="#172033">Non-RAG</text>
<text x="240.0" y="113.0" text-anchor="middle" font-family="Arial, sans-serif" font-size="16" font-weight="bold" fill="#172033">Accuracy</text>
<line x1="103" y1="338.0" x2="408" y2="338.0" stroke="#dbe2ea"/>
<text x="95.0" y="342.0" text-anchor="end" font-family="Arial, sans-serif" font-size="10" font-weight="normal" fill="#526176">0.0</text>
<line x1="103" y1="296.4" x2="408" y2="296.4" stroke="#dbe2ea"/>
<text x="95.0" y="300.4" text-anchor="end" font-family="Arial, sans-serif" font-size="10" font-weight="normal" fill="#526176">0.2</text>
<line x1="103" y1="254.8" x2="408" y2="254.8" stroke="#dbe2ea"/>
<text x="95.0" y="258.8" text-anchor="end" font-family="Arial, sans-serif" font-size="10" font-weight="normal" fill="#526176">0.4</text>
<line x1="103" y1="213.2" x2="408" y2="213.2" stroke="#dbe2ea"/>
<text x="95.0" y="217.2" text-anchor="end" font-family="Arial, sans-serif" font-size="10" font-weight="normal" fill="#526176">0.6</text>
<line x1="103" y1="171.6" x2="408" y2="171.6" stroke="#dbe2ea"/>
<text x="95.0" y="175.6" text-anchor="end" font-family="Arial, sans-serif" font-size="10" font-weight="normal" fill="#526176">0.8</text>
<line x1="103" y1="130.0" x2="408" y2="130.0" stroke="#dbe2ea"/>
<text x="95.0" y="134.0" text-anchor="end" font-family="Arial, sans-serif" font-size="10" font-weight="normal" fill="#526176">1.0</text>
<rect x="120.8" y="194.8" width="31" height="143.2" rx="2" fill="#2563eb"/>
<text x="136.3" y="190.8" text-anchor="middle" font-family="Arial, sans-serif" font-size="9" font-weight="normal" fill="#334155">0.688</text>
<rect x="155.8" y="206.7" width="31" height="131.3" rx="2" fill="#f97316"/>
<text x="171.3" y="202.7" text-anchor="middle" font-family="Arial, sans-serif" font-size="9" font-weight="normal" fill="#334155">0.631</text>
<text x="153.8" y="358.0" text-anchor="middle" font-family="Arial, sans-serif" font-size="10" font-weight="normal" fill="#172033">Basic</text>
<rect x="222.5" y="193.1" width="31" height="144.9" rx="2" fill="#2563eb"/>
<text x="238.0" y="189.1" text-anchor="middle" font-family="Arial, sans-serif" font-size="9" font-weight="normal" fill="#334155">0.697</text>
<rect x="257.5" y="201.3" width="31" height="136.7" rx="2" fill="#f97316"/>
<text x="273.0" y="197.3" text-anchor="middle" font-family="Arial, sans-serif" font-size="9" font-weight="normal" fill="#334155">0.657</text>
<text x="255.5" y="358.0" text-anchor="middle" font-family="Arial, sans-serif" font-size="10" font-weight="normal" fill="#172033">Oncology</text>
<rect x="324.2" y="192.0" width="31" height="146.0" rx="2" fill="#2563eb"/>
<text x="339.7" y="188.0" text-anchor="middle" font-family="Arial, sans-serif" font-size="9" font-weight="normal" fill="#334155">0.702</text>
<rect x="359.2" y="204.1" width="31" height="133.9" rx="2" fill="#f97316"/>
<text x="374.7" y="200.1" text-anchor="middle" font-family="Arial, sans-serif" font-size="9" font-weight="normal" fill="#334155">0.644</text>
<text x="357.2" y="358.0" text-anchor="middle" font-family="Arial, sans-serif" font-size="10" font-weight="normal" fill="#172033">Patient ed.</text>
<line x1="103" y1="338" x2="408" y2="338" stroke="#64748b"/>
<text x="630.0" y="113.0" text-anchor="middle" font-family="Arial, sans-serif" font-size="16" font-weight="bold" fill="#172033">Precision</text>
<line x1="493" y1="338.0" x2="798" y2="338.0" stroke="#dbe2ea"/>
<text x="485.0" y="342.0" text-anchor="end" font-family="Arial, sans-serif" font-size="10" font-weight="normal" fill="#526176">0.0</text>
<line x1="493" y1="296.4" x2="798" y2="296.4" stroke="#dbe2ea"/>
<text x="485.0" y="300.4" text-anchor="end" font-family="Arial, sans-serif" font-size="10" font-weight="normal" fill="#526176">0.2</text>
<line x1="493" y1="254.8" x2="798" y2="254.8" stroke="#dbe2ea"/>
<text x="485.0" y="258.8" text-anchor="end" font-family="Arial, sans-serif" font-size="10" font-weight="normal" fill="#526176">0.4</text>
<line x1="493" y1="213.2" x2="798" y2="213.2" stroke="#dbe2ea"/>
<text x="485.0" y="217.2" text-anchor="end" font-family="Arial, sans-serif" font-size="10" font-weight="normal" fill="#526176">0.6</text>
<line x1="493" y1="171.6" x2="798" y2="171.6" stroke="#dbe2ea"/>
<text x="485.0" y="175.6" text-anchor="end" font-family="Arial, sans-serif" font-size="10" font-weight="normal" fill="#526176">0.8</text>
<line x1="493" y1="130.0" x2="798" y2="130.0" stroke="#dbe2ea"/>
<text x="485.0" y="134.0" text-anchor="end" font-family="Arial, sans-serif" font-size="10" font-weight="normal" fill="#526176">1.0</text>
<rect x="510.8" y="167.2" width="31" height="170.8" rx="2" fill="#2563eb"/>
<text x="526.3" y="163.2" text-anchor="middle" font-family="Arial, sans-serif" font-size="9" font-weight="normal" fill="#334155">0.821</text>
<rect x="545.8" y="161.8" width="31" height="176.2" rx="2" fill="#f97316"/>
<text x="561.3" y="157.8" text-anchor="middle" font-family="Arial, sans-serif" font-size="9" font-weight="normal" fill="#334155">0.847</text>
<text x="543.8" y="358.0" text-anchor="middle" font-family="Arial, sans-serif" font-size="10" font-weight="normal" fill="#172033">Basic</text>
<rect x="612.5" y="168.4" width="31" height="169.6" rx="2" fill="#2563eb"/>
<text x="628.0" y="164.4" text-anchor="middle" font-family="Arial, sans-serif" font-size="9" font-weight="normal" fill="#334155">0.815</text>
<rect x="647.5" y="163.2" width="31" height="174.8" rx="2" fill="#f97316"/>
<text x="663.0" y="159.2" text-anchor="middle" font-family="Arial, sans-serif" font-size="9" font-weight="normal" fill="#334155">0.840</text>
<text x="645.5" y="358.0" text-anchor="middle" font-family="Arial, sans-serif" font-size="10" font-weight="normal" fill="#172033">Oncology</text>
<rect x="714.2" y="168.1" width="31" height="169.9" rx="2" fill="#2563eb"/>
<text x="729.7" y="164.1" text-anchor="middle" font-family="Arial, sans-serif" font-size="9" font-weight="normal" fill="#334155">0.817</text>
<rect x="749.2" y="163.0" width="31" height="175.0" rx="2" fill="#f97316"/>
<text x="764.7" y="159.0" text-anchor="middle" font-family="Arial, sans-serif" font-size="9" font-weight="normal" fill="#334155">0.841</text>
<text x="747.2" y="358.0" text-anchor="middle" font-family="Arial, sans-serif" font-size="10" font-weight="normal" fill="#172033">Patient ed.</text>
<line x1="493" y1="338" x2="798" y2="338" stroke="#64748b"/>
<text x="1020.0" y="113.0" text-anchor="middle" font-family="Arial, sans-serif" font-size="16" font-weight="bold" fill="#172033">Recall</text>
<line x1="883" y1="338.0" x2="1188" y2="338.0" stroke="#dbe2ea"/>
<text x="875.0" y="342.0" text-anchor="end" font-family="Arial, sans-serif" font-size="10" font-weight="normal" fill="#526176">0.0</text>
<line x1="883" y1="296.4" x2="1188" y2="296.4" stroke="#dbe2ea"/>
<text x="875.0" y="300.4" text-anchor="end" font-family="Arial, sans-serif" font-size="10" font-weight="normal" fill="#526176">0.2</text>
<line x1="883" y1="254.8" x2="1188" y2="254.8" stroke="#dbe2ea"/>
<text x="875.0" y="258.8" text-anchor="end" font-family="Arial, sans-serif" font-size="10" font-weight="normal" fill="#526176">0.4</text>
<line x1="883" y1="213.2" x2="1188" y2="213.2" stroke="#dbe2ea"/>
<text x="875.0" y="217.2" text-anchor="end" font-family="Arial, sans-serif" font-size="10" font-weight="normal" fill="#526176">0.6</text>
<line x1="883" y1="171.6" x2="1188" y2="171.6" stroke="#dbe2ea"/>
<text x="875.0" y="175.6" text-anchor="end" font-family="Arial, sans-serif" font-size="10" font-weight="normal" fill="#526176">0.8</text>
<line x1="883" y1="130.0" x2="1188" y2="130.0" stroke="#dbe2ea"/>
<text x="875.0" y="134.0" text-anchor="end" font-family="Arial, sans-serif" font-size="10" font-weight="normal" fill="#526176">1.0</text>
<rect x="900.8" y="176.2" width="31" height="161.8" rx="2" fill="#2563eb"/>
<text x="916.3" y="172.2" text-anchor="middle" font-family="Arial, sans-serif" font-size="9" font-weight="normal" fill="#334155">0.778</text>
<rect x="935.8" y="201.8" width="31" height="136.2" rx="2" fill="#f97316"/>
<text x="951.3" y="197.8" text-anchor="middle" font-family="Arial, sans-serif" font-size="9" font-weight="normal" fill="#334155">0.655</text>
<text x="933.8" y="358.0" text-anchor="middle" font-family="Arial, sans-serif" font-size="10" font-weight="normal" fill="#172033">Basic</text>
<rect x="1002.5" y="171.6" width="31" height="166.4" rx="2" fill="#2563eb"/>
<text x="1018.0" y="167.6" text-anchor="middle" font-family="Arial, sans-serif" font-size="9" font-weight="normal" fill="#334155">0.800</text>
<rect x="1037.5" y="191.9" width="31" height="146.1" rx="2" fill="#f97316"/>
<text x="1053.0" y="187.9" text-anchor="middle" font-family="Arial, sans-serif" font-size="9" font-weight="normal" fill="#334155">0.703</text>
<text x="1035.5" y="358.0" text-anchor="middle" font-family="Arial, sans-serif" font-size="10" font-weight="normal" fill="#172033">Oncology</text>
<rect x="1104.2" y="170.2" width="31" height="167.8" rx="2" fill="#2563eb"/>
<text x="1119.7" y="166.2" text-anchor="middle" font-family="Arial, sans-serif" font-size="9" font-weight="normal" fill="#334155">0.807</text>
<rect x="1139.2" y="196.5" width="31" height="141.5" rx="2" fill="#f97316"/>
<text x="1154.7" y="192.5" text-anchor="middle" font-family="Arial, sans-serif" font-size="9" font-weight="normal" fill="#334155">0.680</text>
<text x="1137.2" y="358.0" text-anchor="middle" font-family="Arial, sans-serif" font-size="10" font-weight="normal" fill="#172033">Patient ed.</text>
<line x1="883" y1="338" x2="1188" y2="338" stroke="#64748b"/>
<text x="240.0" y="438.0" text-anchor="middle" font-family="Arial, sans-serif" font-size="16" font-weight="bold" fill="#172033">Specificity</text>
<line x1="103" y1="663.0" x2="408" y2="663.0" stroke="#dbe2ea"/>
<text x="95.0" y="667.0" text-anchor="end" font-family="Arial, sans-serif" font-size="10" font-weight="normal" fill="#526176">0.0</text>
<line x1="103" y1="621.4" x2="408" y2="621.4" stroke="#dbe2ea"/>
<text x="95.0" y="625.4" text-anchor="end" font-family="Arial, sans-serif" font-size="10" font-weight="normal" fill="#526176">0.2</text>
<line x1="103" y1="579.8" x2="408" y2="579.8" stroke="#dbe2ea"/>
<text x="95.0" y="583.8" text-anchor="end" font-family="Arial, sans-serif" font-size="10" font-weight="normal" fill="#526176">0.4</text>
<line x1="103" y1="538.2" x2="408" y2="538.2" stroke="#dbe2ea"/>
<text x="95.0" y="542.2" text-anchor="end" font-family="Arial, sans-serif" font-size="10" font-weight="normal" fill="#526176">0.6</text>
<line x1="103" y1="496.6" x2="408" y2="496.6" stroke="#dbe2ea"/>
<text x="95.0" y="500.6" text-anchor="end" font-family="Arial, sans-serif" font-size="10" font-weight="normal" fill="#526176">0.8</text>
<line x1="103" y1="455.0" x2="408" y2="455.0" stroke="#dbe2ea"/>
<text x="95.0" y="459.0" text-anchor="end" font-family="Arial, sans-serif" font-size="10" font-weight="normal" fill="#526176">1.0</text>
<rect x="120.8" y="592.3" width="31" height="70.7" rx="2" fill="#2563eb"/>
<text x="136.3" y="588.3" text-anchor="middle" font-family="Arial, sans-serif" font-size="9" font-weight="normal" fill="#334155">0.340</text>
<rect x="155.8" y="550.7" width="31" height="112.3" rx="2" fill="#f97316"/>
<text x="171.3" y="546.7" text-anchor="middle" font-family="Arial, sans-serif" font-size="9" font-weight="normal" fill="#334155">0.540</text>
<text x="153.8" y="683.0" text-anchor="middle" font-family="Arial, sans-serif" font-size="10" font-weight="normal" fill="#172033">Basic</text>
<rect x="222.5" y="602.0" width="31" height="61.0" rx="2" fill="#2563eb"/>
<text x="238.0" y="598.0" text-anchor="middle" font-family="Arial, sans-serif" font-size="9" font-weight="normal" fill="#334155">0.293</text>
<rect x="257.5" y="563.2" width="31" height="99.8" rx="2" fill="#f97316"/>
<text x="273.0" y="559.2" text-anchor="middle" font-family="Arial, sans-serif" font-size="9" font-weight="normal" fill="#334155">0.480</text>
<text x="255.5" y="683.0" text-anchor="middle" font-family="Arial, sans-serif" font-size="10" font-weight="normal" fill="#172033">Oncology</text>
<rect x="324.2" y="602.0" width="31" height="61.0" rx="2" fill="#2563eb"/>
<text x="339.7" y="598.0" text-anchor="middle" font-family="Arial, sans-serif" font-size="9" font-weight="normal" fill="#334155">0.293</text>
<rect x="359.2" y="559.0" width="31" height="104.0" rx="2" fill="#f97316"/>
<text x="374.7" y="555.0" text-anchor="middle" font-family="Arial, sans-serif" font-size="9" font-weight="normal" fill="#334155">0.500</text>
<text x="357.2" y="683.0" text-anchor="middle" font-family="Arial, sans-serif" font-size="10" font-weight="normal" fill="#172033">Patient ed.</text>
<line x1="103" y1="663" x2="408" y2="663" stroke="#64748b"/>
<text x="630.0" y="438.0" text-anchor="middle" font-family="Arial, sans-serif" font-size="16" font-weight="bold" fill="#172033">F1</text>
<line x1="493" y1="663.0" x2="798" y2="663.0" stroke="#dbe2ea"/>
<text x="485.0" y="667.0" text-anchor="end" font-family="Arial, sans-serif" font-size="10" font-weight="normal" fill="#526176">0.0</text>
<line x1="493" y1="621.4" x2="798" y2="621.4" stroke="#dbe2ea"/>
<text x="485.0" y="625.4" text-anchor="end" font-family="Arial, sans-serif" font-size="10" font-weight="normal" fill="#526176">0.2</text>
<line x1="493" y1="579.8" x2="798" y2="579.8" stroke="#dbe2ea"/>
<text x="485.0" y="583.8" text-anchor="end" font-family="Arial, sans-serif" font-size="10" font-weight="normal" fill="#526176">0.4</text>
<line x1="493" y1="538.2" x2="798" y2="538.2" stroke="#dbe2ea"/>
<text x="485.0" y="542.2" text-anchor="end" font-family="Arial, sans-serif" font-size="10" font-weight="normal" fill="#526176">0.6</text>
<line x1="493" y1="496.6" x2="798" y2="496.6" stroke="#dbe2ea"/>
<text x="485.0" y="500.6" text-anchor="end" font-family="Arial, sans-serif" font-size="10" font-weight="normal" fill="#526176">0.8</text>
<line x1="493" y1="455.0" x2="798" y2="455.0" stroke="#dbe2ea"/>
<text x="485.0" y="459.0" text-anchor="end" font-family="Arial, sans-serif" font-size="10" font-weight="normal" fill="#526176">1.0</text>
<rect x="510.8" y="496.8" width="31" height="166.2" rx="2" fill="#2563eb"/>
<text x="526.3" y="492.8" text-anchor="middle" font-family="Arial, sans-serif" font-size="9" font-weight="normal" fill="#334155">0.799</text>
<rect x="545.8" y="509.4" width="31" height="153.6" rx="2" fill="#f97316"/>
<text x="561.3" y="505.4" text-anchor="middle" font-family="Arial, sans-serif" font-size="9" font-weight="normal" fill="#334155">0.739</text>
<text x="543.8" y="683.0" text-anchor="middle" font-family="Arial, sans-serif" font-size="10" font-weight="normal" fill="#172033">Basic</text>
<rect x="612.5" y="495.0" width="31" height="168.0" rx="2" fill="#2563eb"/>
<text x="628.0" y="491.0" text-anchor="middle" font-family="Arial, sans-serif" font-size="9" font-weight="normal" fill="#334155">0.808</text>
<rect x="647.5" y="503.8" width="31" height="159.2" rx="2" fill="#f97316"/>
<text x="663.0" y="499.8" text-anchor="middle" font-family="Arial, sans-serif" font-size="9" font-weight="normal" fill="#334155">0.765</text>
<text x="645.5" y="683.0" text-anchor="middle" font-family="Arial, sans-serif" font-size="10" font-weight="normal" fill="#172033">Oncology</text>
<rect x="714.2" y="494.2" width="31" height="168.8" rx="2" fill="#2563eb"/>
<text x="729.7" y="490.2" text-anchor="middle" font-family="Arial, sans-serif" font-size="9" font-weight="normal" fill="#334155">0.812</text>
<rect x="749.2" y="506.5" width="31" height="156.5" rx="2" fill="#f97316"/>
<text x="764.7" y="502.5" text-anchor="middle" font-family="Arial, sans-serif" font-size="9" font-weight="normal" fill="#334155">0.752</text>
<text x="747.2" y="683.0" text-anchor="middle" font-family="Arial, sans-serif" font-size="10" font-weight="normal" fill="#172033">Patient ed.</text>
<line x1="493" y1="663" x2="798" y2="663" stroke="#64748b"/>
<text x="1020.0" y="438.0" text-anchor="middle" font-family="Arial, sans-serif" font-size="16" font-weight="bold" fill="#172033">Balanced Accuracy</text>
<line x1="883" y1="663.0" x2="1188" y2="663.0" stroke="#dbe2ea"/>
<text x="875.0" y="667.0" text-anchor="end" font-family="Arial, sans-serif" font-size="10" font-weight="normal" fill="#526176">0.0</text>
<line x1="883" y1="621.4" x2="1188" y2="621.4" stroke="#dbe2ea"/>
<text x="875.0" y="625.4" text-anchor="end" font-family="Arial, sans-serif" font-size="10" font-weight="normal" fill="#526176">0.2</text>
<line x1="883" y1="579.8" x2="1188" y2="579.8" stroke="#dbe2ea"/>
<text x="875.0" y="583.8" text-anchor="end" font-family="Arial, sans-serif" font-size="10" font-weight="normal" fill="#526176">0.4</text>
<line x1="883" y1="538.2" x2="1188" y2="538.2" stroke="#dbe2ea"/>
<text x="875.0" y="542.2" text-anchor="end" font-family="Arial, sans-serif" font-size="10" font-weight="normal" fill="#526176">0.6</text>
<line x1="883" y1="496.6" x2="1188" y2="496.6" stroke="#dbe2ea"/>
<text x="875.0" y="500.6" text-anchor="end" font-family="Arial, sans-serif" font-size="10" font-weight="normal" fill="#526176">0.8</text>
<line x1="883" y1="455.0" x2="1188" y2="455.0" stroke="#dbe2ea"/>
<text x="875.0" y="459.0" text-anchor="end" font-family="Arial, sans-serif" font-size="10" font-weight="normal" fill="#526176">1.0</text>
<rect x="900.8" y="546.8" width="31" height="116.2" rx="2" fill="#2563eb"/>
<text x="916.3" y="542.8" text-anchor="middle" font-family="Arial, sans-serif" font-size="9" font-weight="normal" fill="#334155">0.559</text>
<rect x="935.8" y="538.8" width="31" height="124.2" rx="2" fill="#f97316"/>
<text x="951.3" y="534.8" text-anchor="middle" font-family="Arial, sans-serif" font-size="9" font-weight="normal" fill="#334155">0.597</text>
<text x="933.8" y="683.0" text-anchor="middle" font-family="Arial, sans-serif" font-size="10" font-weight="normal" fill="#172033">Basic</text>
<rect x="1002.5" y="549.3" width="31" height="113.7" rx="2" fill="#2563eb"/>
<text x="1018.0" y="545.3" text-anchor="middle" font-family="Arial, sans-serif" font-size="9" font-weight="normal" fill="#334155">0.547</text>
<rect x="1037.5" y="540.0" width="31" height="123.0" rx="2" fill="#f97316"/>
<text x="1053.0" y="536.0" text-anchor="middle" font-family="Arial, sans-serif" font-size="9" font-weight="normal" fill="#334155">0.591</text>
<text x="1035.5" y="683.0" text-anchor="middle" font-family="Arial, sans-serif" font-size="10" font-weight="normal" fill="#172033">Oncology</text>
<rect x="1104.2" y="548.6" width="31" height="114.4" rx="2" fill="#2563eb"/>
<text x="1119.7" y="544.6" text-anchor="middle" font-family="Arial, sans-serif" font-size="9" font-weight="normal" fill="#334155">0.550</text>
<rect x="1139.2" y="540.2" width="31" height="122.8" rx="2" fill="#f97316"/>
<text x="1154.7" y="536.2" text-anchor="middle" font-family="Arial, sans-serif" font-size="9" font-weight="normal" fill="#334155">0.590</text>
<text x="1137.2" y="683.0" text-anchor="middle" font-family="Arial, sans-serif" font-size="10" font-weight="normal" fill="#172033">Patient ed.</text>
<line x1="883" y1="663" x2="1188" y2="663" stroke="#64748b"/>
</svg>